{
  "accessors": [
    {
      "bufferView": 2,
      "componentType": 5126,
      "count": 218,
      "max": [
        0.7309161424636841,
        1.044734001159668,
        1.0
      ],
      "min": [
        -0.8003358840942383,
        -0.745703399181366,
        -1.0
      ],
      "type": "VEC3"
    },
    {
      "bufferView": 2,
      "byteOffset": 2616,
      "componentType": 5126,
      "count": 218,
      "max": [
        0.9922925233840942,
        0.9493822455406189,
        1.0
      ],
      "min": [
        -0.9998805522918701,
        -0.9404131174087524,
        -1.0
      ],
      "type": "VEC3"
    },
    {
      "bufferView": 3,
      "componentType": 5126,
      "count": 218,
      "max": [
        0.9404129385948181,
        0.9998773336410522,
        0.9948729872703552,
        1.0
      ],
      "min": [
        -0.9996436834335327,
        -0.927180826663971,
        -0.9999650716781616,
        -1.0
      ],
      "type": "VEC4"
    },
    {
      "bufferView": 1,
      "componentType": 5126,
      "count": 218,
      "max": [
        0.8443225026130676,
        0.8241273164749146
      ],
      "min": [
        0.024203240871429443,
        0.008692562580108643
      ],
      "type": "VEC2"
    },
    {
      "bufferView": 1,
      "byteOffset": 1744,
      "componentType": 5126,
      "count": 218,
      "max": [
        0.8443225026130676,
        0.8241273164749146
      ],
      "min": [
        0.024203240871429443,
        0.008692562580108643
      ],
      "type": "VEC2"
    },
    {
      "bufferView": 1,
      "byteOffset": 3488,
      "componentType": 5126,
      "count": 218,
      "max": [
        0.8443225026130676,
        0.8241273164749146
      ],
      "min": [
        0.024203240871429443,
        0.008692562580108643
      ],
      "type": "VEC2"
    },
    {
      "bufferView": 0,
      "componentType": 5125,
      "count": 432,
      "type": "SCALAR"
    },
    {
      "bufferView": 2,
      "byteOffset": 5232,
      "componentType": 5126,
      "count": 11,
      "max": [
        1.3079988956451416,
        0.42447739839553833,
        0.9503563046455383
      ],
      "min": [
        -0.0016654133796691895,
        0.0,
        -0.9503563046455383
      ],
      "type": "VEC3"
    },
    {
      "bufferView": 2,
      "byteOffset": 5364,
      "componentType": 5126,
      "count": 11,
      "max": [
        0.46182966232299805,
        -0.8869686722755432,
        0.013348163105547428
      ],
      "min": [
        0.1493358016014099,
        -0.9886965155601501,
        0.0
      ],
      "type": "VEC3"
    },
    {
      "bufferView": 3,
      "byteOffset": 3488,
      "componentType": 5126,
      "count": 11,
      "max": [
        0.021658392623066902,
        0.011277148500084877,
        -0.9997019171714783,
        -1.0
      ],
      "min": [
        -0.004904387518763542,
        -0.011916632764041424,
        -1.0,
        -1.0
      ],
      "type": "VEC4"
    },
    {
      "bufferView": 1,
      "byteOffset": 5232,
      "componentType": 5126,
      "count": 11,
      "max": [
        0.978935956954956,
        0.9907916784286499
      ],
      "min": [
        0.5216010212898254,
        0.6625034213066101
      ],
      "type": "VEC2"
    },
    {
      "bufferView": 1,
      "byteOffset": 5320,
      "componentType": 5126,
      "count": 11,
      "max": [
        0.978935956954956,
        0.9907916784286499
      ],
      "min": [
        0.5216010212898254,
        0.6625034213066101
      ],
      "type": "VEC2"
    },
    {
      "bufferView": 1,
      "byteOffset": 5408,
      "componentType": 5126,
      "count": 11,
      "max": [
        0.978935956954956,
        0.9907916784286499
      ],
      "min": [
        0.5216010212898254,
        0.6625034213066101
      ],
      "type": "VEC2"
    },
    {
      "bufferView": 0,
      "byteOffset": 1728,
      "componentType": 5125,
      "count": 27,
      "type": "SCALAR"
    },
    {
      "bufferView": 2,
      "byteOffset": 5496,
      "componentType": 5126,
      "count": 11,
      "max": [
        1.264313817024231,
        0.5508168935775757,
        0.9503563046455383
      ],
      "min": [
        -0.0016654133796691895,
        0.0,
        -0.9503563046455383
      ],
      "type": "VEC3"
    },
    {
      "bufferView": 2,
      "byteOffset": 5628,
      "componentType": 5126,
      "count": 11,
      "max": [
        -0.2838386595249176,
        0.9588720798492432,
        0.0
      ],
      "min": [
        -0.44887813925743103,
        0.8935399055480957,
        -0.009750137105584145
      ],
      "type": "VEC3"
    },
    {
      "bufferView": 3,
      "byteOffset": 3664,
      "componentType": 5126,
      "count": 11,
      "max": [
        -0.8900381326675415,
        -0.2838095426559448,
        0.09398297965526581,
        1.0
      ],
      "min": [
        -0.9587836265563965,
        -0.4487517774105072,
        -0.022152500227093697,
        1.0
      ],
      "type": "VEC4"
    },
    {
      "bufferView": 1,
      "byteOffset": 5496,
      "componentType": 5126,
      "count": 11,
      "max": [
        0.3550128936767578,
        0.9523306488990784
      ],
      "min": [
        0.025231897830963135,
        0.49499568343162537
      ],
      "type": "VEC2"
    },
    {
      "bufferView": 1,
      "byteOffset": 5584,
      "componentType": 5126,
      "count": 11,
      "max": [
        0.3550128936767578,
        0.9523306488990784
      ],
      "min": [
        0.025231897830963135,
        0.49499568343162537
      ],
      "type": "VEC2"
    },
    {
      "bufferView": 1,
      "byteOffset": 5672,
      "componentType": 5126,
      "count": 11,
      "max": [
        0.3550128936767578,
        0.9523306488990784
      ],
      "min": [
        0.025231897830963135,
        0.49499568343162537
      ],
      "type": "VEC2"
    },
    {
      "bufferView": 0,
      "byteOffset": 1836,
      "componentType": 5125,
      "count": 27,
      "type": "SCALAR"
    }
  ],
  "asset": {
    "extras": {
      "author": "Lehandr0Lebruch0 (https://sketchfab.com/Lehandr0Lebruch0)",
      "license": "CC-BY-4.0 (http://creativecommons.org/licenses/by/4.0/)",
      "source": "https://sketchfab.com/3d-models/grimoire-9320b5fa181445ad9769cfa1a9d13fa5",
      "title": "Grimoire"
    },
    "generator": "Sketchfab-16.62.0",
    "version": "2.0"
  },
  "bufferViews": [
    {
      "buffer": 0,
      "byteLength": 1944,
      "name": "floatBufferViews",
      "target": 34963
    },
    {
      "buffer": 0,
      "byteLength": 5760,
      "byteOffset": 1944,
      "byteStride": 8,
      "name": "floatBufferViews",
      "target": 34962
    },
    {
      "buffer": 0,
      "byteLength": 5760,
      "byteOffset": 7704,
      "byteStride": 12,
      "name": "floatBufferViews",
      "target": 34962
    },
    {
      "buffer": 0,
      "byteLength": 3840,
      "byteOffset": 13464,
      "byteStride": 16,
      "name": "floatBufferViews",
      "target": 34962
    }
  ],
  "buffers": [
    {
      "byteLength": 17304,
      "uri": "scene.bin"
    }
  ],
  "extensionsUsed": [
    "KHR_materials_specular"
  ],
  "images": [
    {
      "uri": "textures/Material_baseColor.png"
    },
    {
      "uri": "textures/Material_normal.png"
    }
  ],
  "materials": [
    {
      "doubleSided": true,
      "extensions": {
        "KHR_materials_specular": {
          "specularColorFactor": [
            1.0,
            1.0,
            1.0
          ],
          "specularFactor": 0.0
        }
      },
      "name": "Material",
      "normalTexture": {
        "index": 1
      },
      "pbrMetallicRoughness": {
        "baseColorTexture": {
          "index": 0
        },
        "metallicFactor": 0.0,
        "roughnessFactor": 0.0
      }
    }
  ],
  "meshes": [
    {
      "name": "Book_low_Material_0",
      "primitives": [
        {
          "attributes": {
            "NORMAL": 1,
            "POSITION": 0,
            "TANGENT": 2,
            "TEXCOORD_0": 3,
            "TEXCOORD_1": 4,
            "TEXCOORD_2": 5
          },
          "indices": 6,
          "material": 0,
          "mode": 4
        }
      ]
    },
    {
      "name": "Paper_dowm_low_Material_0",
      "primitives": [
        {
          "attributes": {
            "NORMAL": 8,
            "POSITION": 7,
            "TANGENT": 9,
            "TEXCOORD_0": 10,
            "TEXCOORD_1": 11,
            "TEXCOORD_2": 12
          },
          "indices": 13,
          "material": 0,
          "mode": 4
        }
      ]
    },
    {
      "name": "Paper_up_low_Material_0",
      "primitives": [
        {
          "attributes": {
            "NORMAL": 15,
            "POSITION": 14,
            "TANGENT": 16,
            "TEXCOORD_0": 17,
            "TEXCOORD_1": 18,
            "TEXCOORD_2": 19
          },
          "indices": 20,
          "material": 0,
          "mode": 4
        }
      ]
    }
  ],
  "nodes": [
    {
      "children": [
        1
      ],
      "matrix": [
        1.0,
        0.0,
        0.0,
        0.0,
        0.0,
        2.220446049250313e-16,
        -1.0,
        0.0,
        0.0,
        1.0,
        2.220446049250313e-16,
        0.0,
        0.0,
        0.0,
        0.0,
        1.0
      ],
      "name": "Sketchfab_model"
    },
    {
      "children": [
        2
      ],
      "matrix": [
        0.009999999776482582,
        0.0,
        0.0,
        0.0,
        0.0,
        0.0,
        0.009999999776482582,
        0.0,
        0.0,
        -0.009999999776482582,
        0.0,
        0.0,
        0.0,
        0.0,
        0.0,
        1.0
      ],
      "name": "c6bd9d55438d4815bf20072651bb86cd.fbx"
    },
    {
      "children": [
        3,
        5,
        7
      ],
      "name": "RootNode"
    },
    {
      "children": [
        4
      ],
      "matrix": [
        99.58846849675163,
        -0.03929096345990007,
        -9.062942379308447,
        -0.0,
        9.062866598257255,
        -0.1629420753392341,
        99.58834218372287,
        -0.0,
        0.053896557313408006,
        99.99985190102008,
        0.15871060554629657,
        -0.0,
        3.846210241317749,
        17.04340171813965,
        -5.779233455657959,
        1.0
      ],
      "name": "Book_low"
    },
    {
      "mesh": 0,
      "name": "Book_low_Material_0"
    },
    {
      "children": [
        6
      ],
      "matrix": [
        99.3486826401585,
        0.035461601209755014,
        -11.394580916429469,
        0.0,
        11.394509513034947,
        0.1637912638703165,
        99.34856982050236,
        0.0,
        0.053893921733087206,
        -99.99985194500022,
        0.15868378741150915,
        0.0,
        -53.343570709228516,
        17.02083969116211,
        -0.574735164642334,
        1.0
      ],
      "name": "Paper_dowm_low"
    },
    {
      "mesh": 1,
      "name": "Paper_dowm_low_Material_0"
    },
    {
      "children": [
        8
      ],
      "matrix": [
        82.86878324208185,
        -0.04413423311253736,
        -55.971102740836606,
        0.0,
        55.9710899023777,
        0.16167235360023957,
        82.86863675233252,
        0.0,
        0.05391635358868564,
        -99.99985194161683,
        0.15867829934811337,
        0.0,
        -53.343570709228516,
        17.02083969116211,
        -0.574735164642334,
        1.0
      ],
      "name": "Paper_up_low"
    },
    {
      "mesh": 2,
      "name": "Paper_up_low_Material_0"
    }
  ],
  "samplers": [
    {
      "magFilter": 9729,
      "minFilter": 9987,
      "wrapS": 10497,
      "wrapT": 10497
    }
  ],
  "scene": 0,
  "scenes": [
    {
      "name": "Sketchfab_Scene",
      "nodes": [
        0
      ]
    }
  ],
  "textures": [
    {
      "sampler": 0,
      "source": 0
    },
    {
      "sampler": 0,
      "source": 1
    }
  ]
}
